<?xml version="1.0" encoding="UTF-8"?>
<svg xmlns="http://www.w3.org/2000/svg" xmlns:xlink="http://www.w3.org/1999/xlink" width="486pt" height="181pt" viewBox="0 0 486 181" version="1.1">
<defs>
<linearGradient id="linear0" gradientUnits="userSpaceOnUse" x1="141.736" y1="72.0497" x2="236.528" y2="72.0497" gradientTransform="matrix(1.246154,0,0,1.248276,0,0)">
<stop offset="0" style="stop-color:rgb(17.647059%,37.647059%,43.529412%);stop-opacity:1;"/>
<stop offset="1" style="stop-color:rgb(56.470588%,64.705882%,56.470588%);stop-opacity:1;"/>
</linearGradient>
</defs>
<g id="surface1">
<path style=" stroke:none;fill-rule:nonzero;fill:url(#linear0);" d="M 11.863281 142.085938 L 11.863281 133.371094 C 23.730469 137.597656 36.808594 139.710938 51.101562 139.710938 C 74.777344 139.710938 86.617188 130.730469 86.617188 112.769531 C 86.617188 99.5625 78.917969 92.960938 63.519531 92.960938 L 40.261719 92.960938 C 19.222656 92.960938 8.699219 83.453125 8.699219 64.433594 C 8.699219 42.777344 24.125 31.949219 54.976562 31.949219 C 67.632812 31.949219 79.890625 33.53125 91.757812 36.703125 L 91.757812 44.625 C 79.890625 40.929688 67.632812 39.078125 54.976562 39.078125 C 29.664062 39.078125 17.007812 47.53125 17.007812 64.433594 C 17.007812 78.167969 24.757812 85.035156 40.261719 85.035156 L 63.519531 85.035156 C 84.453125 85.035156 94.921875 94.28125 94.921875 112.769531 C 94.921875 135.484375 80.316406 146.839844 51.101562 146.839844 C 36.808594 146.839844 23.730469 145.253906 11.863281 142.085938 Z M 115.960938 49.378906 L 121.816406 49.378906 L 123.320312 62.851562 L 148.234375 62.851562 L 148.234375 69.980469 L 124.03125 69.980469 L 124.03125 122.515625 C 124.03125 133.449219 128.039062 138.917969 136.054688 138.917969 L 148.234375 138.917969 L 148.234375 146.046875 L 136.214844 146.046875 C 122.710938 146.046875 115.960938 138.574219 115.960938 123.625 Z M 314.269531 62.851562 L 323.839844 62.851562 L 354.691406 137.964844 L 385.066406 62.851562 L 394.242188 62.851562 L 358.171875 148.503906 C 352.054688 163.613281 342.878906 173.039062 330.644531 176.792969 L 328.191406 170.136719 C 337.789062 166.648438 345.121094 159.042969 350.183594 147.316406 Z M 443.207031 62.851562 C 465.933594 62.851562 477.300781 75.449219 477.300781 100.644531 C 477.300781 102.441406 477.246094 104.316406 477.140625 106.273438 L 414.097656 106.273438 C 414.097656 128.035156 425.59375 138.917969 448.585938 138.917969 C 458.023438 138.917969 466.410156 137.597656 473.738281 134.953125 L 473.738281 142.085938 C 466.410156 144.726562 458.023438 146.046875 448.585938 146.046875 C 420.054688 146.046875 405.792969 131.867188 405.792969 103.5 C 405.792969 76.398438 418.261719 62.851562 443.207031 62.851562 Z M 414.097656 98.824219 L 469.308594 98.824219 C 468.992188 79.488281 460.292969 69.824219 443.207031 69.824219 C 424.75 69.824219 415.046875 79.488281 414.097656 98.824219 Z M 414.097656 98.824219 "/>
<path style=" stroke:none;fill-rule:nonzero;fill:rgb(44.313725%,58.823529%,59.215686%);fill-opacity:1;" d="M 309.855469 142.683594 L 293.195312 142.683594 L 293.195312 142.515625 L 244.5625 45.496094 L 251.128906 32.382812 C 251.464844 31.539062 251.296875 30.53125 250.453125 30.195312 C 249.613281 29.859375 248.601562 30.195312 248.265625 30.867188 L 242.714844 41.796875 L 237.160156 30.867188 C 236.824219 30.027344 235.816406 29.691406 234.972656 30.195312 C 234.132812 30.53125 233.792969 31.539062 234.300781 32.382812 L 240.695312 45.160156 L 191.894531 142.515625 L 191.894531 142.683594 L 174.898438 142.683594 C 173.886719 142.683594 173.214844 143.359375 173.214844 144.367188 C 173.214844 145.375 173.886719 146.046875 174.898438 146.046875 L 309.855469 146.046875 C 310.867188 146.046875 311.539062 145.375 311.539062 144.367188 C 311.539062 143.527344 310.867188 142.683594 309.855469 142.683594 Z M 222.855469 142.683594 L 242.546875 103.675781 L 262.234375 142.683594 Z M 266.105469 142.683594 L 244.226562 99.304688 C 243.722656 98.125 241.871094 98.125 241.199219 99.304688 L 219.15625 142.683594 L 195.597656 142.683594 L 242.546875 48.859375 L 289.492188 142.683594 Z M 266.105469 142.683594 "/>
</g>
</svg>
