<svg width="390" height="145" viewBox="0 0 390 145" fill="none" xmlns="http://www.w3.org/2000/svg">
<path d="M9.52148 113.826V106.844C19.043 110.229 29.5378 111.922 41.0059 111.922C60.0065 111.922 69.5068 104.728 69.5068 90.3398C69.5068 79.7604 63.3285 74.4707 50.9717 74.4707H32.3096C15.4248 74.4707 6.98242 66.8535 6.98242 51.6191C6.98242 34.2689 19.3604 25.5938 44.1162 25.5938C54.2725 25.5938 64.1113 26.8633 73.6328 29.4023V35.75C64.1113 32.7878 54.2725 31.3066 44.1162 31.3066C23.8037 31.3066 13.6475 38.0775 13.6475 51.6191C13.6475 62.6217 19.8682 68.123 32.3096 68.123H50.9717C67.7718 68.123 76.1719 75.5286 76.1719 90.3398C76.1719 108.536 64.4499 117.635 41.0059 117.635C29.5378 117.635 19.043 116.365 9.52148 113.826ZM93.0566 39.5586H97.7539L98.96 50.3496H118.955V56.0625H99.5312V98.1475C99.5312 106.907 102.747 111.287 109.18 111.287H118.955V117H109.307C98.4733 117 93.0566 111.012 93.0566 99.0361V39.5586ZM252.192 50.3496H259.873L284.629 110.525L309.004 50.3496H316.367L287.422 118.968C282.513 131.071 275.15 138.624 265.332 141.629L263.364 136.297C271.066 133.504 276.948 127.41 281.011 118.016L252.192 50.3496ZM355.659 50.3496C373.898 50.3496 383.018 60.4424 383.018 80.6279C383.018 82.0667 382.975 83.569 382.891 85.1348H332.3C332.3 102.57 341.525 111.287 359.976 111.287C367.55 111.287 374.279 110.229 380.161 108.113V113.826C374.279 115.942 367.55 117 359.976 117C337.082 117 325.635 105.638 325.635 82.9131C325.635 61.2041 335.643 50.3496 355.659 50.3496ZM332.3 79.168H376.606C376.353 63.6797 369.37 55.9355 355.659 55.9355C340.848 55.9355 333.062 63.6797 332.3 79.168Z" fill="url(#paint0_linear)"/>
<path d="M248.65 114.306H235.281V114.171L196.255 36.4478L201.522 25.941C201.792 25.2675 201.657 24.4593 200.982 24.1899C200.307 23.9205 199.496 24.1899 199.226 24.7287L194.77 33.4844L190.314 24.7287C190.044 24.0552 189.234 23.7858 188.558 24.1899C187.883 24.4593 187.613 25.2675 188.018 25.941L193.15 36.1784L153.989 114.171V114.306H140.35C139.54 114.306 139 114.845 139 115.653C139 116.461 139.54 117 140.35 117H248.65C249.46 117 250 116.461 250 115.653C250 114.979 249.46 114.306 248.65 114.306ZM178.836 114.306L194.635 83.0549L210.434 114.306H178.836ZM213.54 114.306L195.985 79.5527C195.58 78.6097 194.095 78.6097 193.555 79.5527L175.865 114.306H156.96L194.635 39.1419L232.31 114.306H213.54Z" fill="url(#paint1_linear)"/>
<defs>
<linearGradient id="paint0_linear" x1="141.736" y1="72.0497" x2="236.528" y2="72.0497" gradientUnits="userSpaceOnUse">
<stop stop-color="#2D606F"/>
<stop offset="1" stop-color="#90A590"/>
</linearGradient>
<linearGradient id="paint1_linear" x1="194.5" y1="24" x2="194.5" y2="117" gradientUnits="userSpaceOnUse">
<stop stop-color="#719697"/>
<stop offset="1" stop-color="#719697"/>
</linearGradient>
</defs>
</svg>
