<?xml version="1.0" standalone="no"?>
<!DOCTYPE svg PUBLIC "-//W3C//DTD SVG 1.0//EN" "http://www.w3.org/TR/2001/REC-SVG-20010904/DTD/svg10.dtd">
<svg xmlns="http://www.w3.org/2000/svg" xmlns:xlink="http://www.w3.org/1999/xlink" id="body_1" width="991" height="369">

<defs>
    <linearGradient transform="matrix(1 0 0 1 0 0)"  id="1" x1="141.736" y1="72.0497" x2="236.528" y2="72.0497">
        <stop stop-color="#2D606F" offset="0%"/>
        <stop stop-color="#90A590" offset="100%"/>
    </linearGradient>
</defs>

<g transform="matrix(1.529321 0 0 1.53112 0 0)">
	<g transform="matrix(1.333333 0 0 1.331492 0 1.015847E-05)">
	</g>
    <path transform="matrix(1.333333 0 0 1.331492 0 1.015847E-05)"  d="M11.86328 142.0859L11.86328 133.3711C 23.73047 137.5977 36.80859 139.7109 51.10156 139.7109C 74.77734 139.7109 86.61719 130.7305 86.61719 112.7695C 86.61719 99.5625 78.91797 92.96094 63.51953 92.96094L63.51953 92.96094L40.26172 92.96094C 19.22266 92.96094 8.699219 83.45313 8.699219 64.43359C 8.699219 42.77734 24.125 31.94922 54.97656 31.94922C 67.63281 31.94922 79.89063 33.53125 91.75781 36.70313L91.75781 36.70313L91.75781 44.625C 79.89063 40.92969 67.63281 39.07813 54.97656 39.07813C 29.66406 39.07813 17.00781 47.53125 17.00781 64.43359C 17.00781 78.16797 24.75781 85.03516 40.26172 85.03516L40.26172 85.03516L63.51953 85.03516C 84.45313 85.03516 94.92188 94.28125 94.92188 112.7695C 94.92188 135.4844 80.31641 146.8398 51.10156 146.8398C 36.80859 146.8398 23.73047 145.2539 11.86328 142.0859zM115.9609 49.37891L121.8164 49.37891L123.3203 62.85156L148.2344 62.85156L148.2344 69.98047L124.0313 69.98047L124.0313 122.5156C 124.0313 133.4492 128.0391 138.918 136.0547 138.918L136.0547 138.918L148.2344 138.918L148.2344 146.0469L136.2148 146.0469C 122.7109 146.0469 115.9609 138.5742 115.9609 123.625zM314.2695 62.85156L323.8398 62.85156L354.6914 137.9648L385.0664 62.85156L394.2422 62.85156L358.1719 148.5039C 352.0547 163.6133 342.8789 173.0391 330.6445 176.793L330.6445 176.793L328.1914 170.1367C 337.7891 166.6484 345.1211 159.043 350.1836 147.3164zM443.207 62.85156C 465.9336 62.85156 477.3008 75.44922 477.3008 100.6445C 477.3008 102.4414 477.2461 104.3164 477.1406 106.2734L477.1406 106.2734L414.0977 106.2734C 414.0977 128.0352 425.5938 138.918 448.5859 138.918C 458.0234 138.918 466.4102 137.5977 473.7383 134.9531L473.7383 134.9531L473.7383 142.0859C 466.4102 144.7266 458.0234 146.0469 448.5859 146.0469C 420.0547 146.0469 405.793 131.8672 405.793 103.5C 405.793 76.39844 418.2617 62.85156 443.207 62.85156zM414.0977 98.82422L469.3086 98.82422C 468.9922 79.48828 460.293 69.82422 443.207 69.82422C 424.75 69.82422 415.0469 79.48828 414.0977 98.82422z" stroke="none" fill="url(#1)" />
	<g transform="matrix(1.333333 0 0 1.331492 0 1.015847E-05)">
	</g>
    <path transform="matrix(1.333333 0 0 1.331492 0 1.015847E-05)"  d="M309.8555 142.6836L293.1953 142.6836L293.1953 142.5156L244.5625 45.49609L251.1289 32.38281C 251.4648 31.53906 251.2969 30.53125 250.4531 30.19531C 249.6133 29.85938 248.6016 30.19531 248.2656 30.86719L248.2656 30.86719L242.7148 41.79688L237.1602 30.86719C 236.8242 30.02734 235.8164 29.69141 234.9727 30.19531C 234.1328 30.53125 233.793 31.53906 234.3008 32.38281L234.3008 32.38281L240.6953 45.16016L191.8945 142.5156L191.8945 142.6836L174.8984 142.6836C 173.8867 142.6836 173.2148 143.3594 173.2148 144.3672C 173.2148 145.375 173.8867 146.0469 174.8984 146.0469L174.8984 146.0469L309.8555 146.0469C 310.8672 146.0469 311.5391 145.375 311.5391 144.3672C 311.5391 143.5273 310.8672 142.6836 309.8555 142.6836zM222.8555 142.6836L242.5469 103.6758L262.2344 142.6836zM266.1055 142.6836L244.2266 99.30469C 243.7227 98.125 241.8711 98.125 241.1992 99.30469L241.1992 99.30469L219.1563 142.6836L195.5977 142.6836L242.5469 48.85938L289.4922 142.6836z" stroke="none" fill="#719697" fill-rule="nonzero" />
</g>
</svg>